# xmcd
#
# Track frame offsets: 
#        150
#        38478
#        64599
#        83337
#        108780
#        143677
#        178282
#
# Disc length: 2941 seconds
#
# Revision: 0
# Processed by: cddbd v1.5.2PL0 Copyright (c) Steve Scherf et al.
# Submitted via: ExactAudioCopy v0.95b4
#
DISCID=4b0b7b07
DTITLE=APT - UN-RELEASED TRACKS 2007 -WINTER-
DYEAR=2007
DGENRE=Club-House
TTITLE0=The Piano - DAISHI DANCE
TTITLE1=ascension - PAX JAPONICA GROOVE
TTITLE2=Spirited Away -Dub Mix- - TIGER STRIPES
TTITLE3=Church Lady -DF's Dub- - DENNIS FERRER feat. Danil Wright
TTITLE4=Secret Voyage -12inch Mix- - STUDIO APARTMENT
TTITLE5=Footsteps of phire -DJ OJI Remix- - DJ OJI feat. Phire and The
TTITLE5=ICB
TTITLE6=natural language - nomad fundation
EXTD=
EXTT0=
EXTT1=
EXTT2=
EXTT3=
EXTT4=
EXTT5=
EXTT6=
PLAYORDER=
